<svg xmlns="http://www.w3.org/2000/svg" height="337" width="960.0" font-size="16" font-family="sans-serif" stroke-width="2">
<g transform="translate(10.0 0)">
<text fill="hsl(0, 100%, 40%)" y="22">catch.1000000.sp.shallow 307  ms</text>
<g>
<title>307  ms ± 6.8 ms</title>
<rect y="28" rx="5" height="22" width="136.5159086237833" fill="hsl(0, 100%, 80%)" stroke="hsl(0, 100%, 55%)" />
<g stroke="hsl(0, 100%, 40%)"><line x1="133.49985929036146" x2="139.53195795720515" y1="39" y2="39" />
<line x1="133.49985929036146" x2="133.49985929036146" y1="33" y2="45" />
<line x1="139.53195795720515" x2="139.53195795720515" y1="33" y2="45" />
</g>
</g>
<g fill="hsl(60, 100%, 40%)">
<text y="77">catch.1000000.sp.deep</text>
<text y="77" x="239.83485529405877" text-anchor="end">538  ms</text>
</g>
<g>
<title>538  ms ±  44 ms</title>
<rect y="83" rx="5" height="22" width="239.83485529405877" fill="hsl(60, 100%, 80%)" stroke="hsl(60, 100%, 55%)" />
<g stroke="hsl(60, 100%, 40%)"><line x1="220.3954865709931" x2="259.2742240171244" y1="94" y2="94" />
<line x1="220.3954865709931" x2="220.3954865709931" y1="88" y2="100" />
<line x1="259.2742240171244" x2="259.2742240171244" y1="88" y2="100" />
</g>
</g>
<g fill="hsl(120, 100%, 40%)">
<text y="132">catch.1000000.fused.shallow</text>
<text y="132" x="322.87653271597594" text-anchor="end">725  ms</text>
</g>
<g>
<title>725  ms ±  52 ms</title>
<rect y="138" rx="5" height="22" width="322.87653271597594" fill="hsl(120, 100%, 80%)" stroke="hsl(120, 100%, 55%)" />
<g stroke="hsl(120, 100%, 40%)"><line x1="299.8766972746002" x2="345.8763681573517" y1="149" y2="149" />
<line x1="299.8766972746002" x2="299.8766972746002" y1="143" y2="155" />
<line x1="345.8763681573517" x2="345.8763681573517" y1="143" y2="155" />
</g>
</g>
<g fill="hsl(180, 100%, 40%)">
<text y="187">catch.1000000.fused.deep</text>
<text y="187" x="883.0668099702398" text-anchor="end">1.983 s</text>
</g>
<g>
<title>1.983 s ± 128 ms</title>
<rect y="193" rx="5" height="22" width="883.0668099702398" fill="hsl(180, 100%, 80%)" stroke="hsl(180, 100%, 55%)" />
<g stroke="hsl(180, 100%, 40%)"><line x1="826.1336199404795" x2="940.0" y1="204" y2="204" />
<line x1="826.1336199404795" x2="826.1336199404795" y1="198" y2="210" />
<line x1="940.0" x2="940.0" y1="198" y2="210" />
</g>
</g>
<g fill="hsl(240, 100%, 40%)">
<text y="242">catch.1000000.sem.shallow</text>
<text y="242" x="367.9658214670191" text-anchor="end">826  ms</text>
</g>
<g>
<title>826  ms ±  78 ms</title>
<rect y="248" rx="5" height="22" width="367.9658214670191" fill="hsl(240, 100%, 80%)" stroke="hsl(240, 100%, 55%)" />
<g stroke="hsl(240, 100%, 40%)"><line x1="333.4027711465243" x2="402.52887178751394" y1="259" y2="259" />
<line x1="333.4027711465243" x2="333.4027711465243" y1="253" y2="265" />
<line x1="402.52887178751394" x2="402.52887178751394" y1="253" y2="265" />
</g>
</g>
<g fill="hsl(300, 100%, 40%)">
<text y="297">catch.1000000.sem.deep</text>
<text y="297" x="622.3487626724011" text-anchor="end">1.397 s</text>
</g>
<g>
<title>1.397 s ±  60 ms</title>
<rect y="303" rx="5" height="22" width="622.3487626724011" fill="hsl(300, 100%, 80%)" stroke="hsl(300, 100%, 55%)" />
<g stroke="hsl(300, 100%, 40%)"><line x1="595.4495988433533" x2="649.2479265014489" y1="314" y2="314" />
<line x1="595.4495988433533" x2="595.4495988433533" y1="308" y2="320" />
<line x1="649.2479265014489" x2="649.2479265014489" y1="308" y2="320" />
</g>
</g>
</g>
</svg>
