<svg xmlns="http://www.w3.org/2000/svg" height="337" width="960.0" font-size="16" font-family="sans-serif" stroke-width="2">
<g transform="translate(10.0 0)">
<text fill="hsl(0, 100%, 40%)" y="22">catch.1000000.sp.shallow 342  ms</text>
<g>
<title>342  ms ±  21 ms</title>
<rect y="28" rx="5" height="22" width="154.87523532260138" fill="hsl(0, 100%, 80%)" stroke="hsl(0, 100%, 55%)" />
<g stroke="hsl(0, 100%, 40%)"><line x1="145.17519493877666" x2="164.5752757064261" y1="39" y2="39" />
<line x1="145.17519493877666" x2="145.17519493877666" y1="33" y2="45" />
<line x1="164.5752757064261" x2="164.5752757064261" y1="33" y2="45" />
</g>
</g>
<g fill="hsl(60, 100%, 40%)">
<text y="77">catch.1000000.sp.deep</text>
<text y="77" x="242.1568746304305" text-anchor="end">535  ms</text>
</g>
<g>
<title>535  ms ±  49 ms</title>
<rect y="83" rx="5" height="22" width="242.1568746304305" fill="hsl(60, 100%, 80%)" stroke="hsl(60, 100%, 55%)" />
<g stroke="hsl(60, 100%, 40%)"><line x1="220.04943096123253" x2="264.2643182996285" y1="94" y2="94" />
<line x1="220.04943096123253" x2="220.04943096123253" y1="88" y2="100" />
<line x1="264.2643182996285" x2="264.2643182996285" y1="88" y2="100" />
</g>
</g>
<g fill="hsl(120, 100%, 40%)">
<text y="132">catch.1000000.fused.shallow</text>
<text y="132" x="333.83213075531853" text-anchor="end">738  ms</text>
</g>
<g>
<title>738  ms ±  28 ms</title>
<rect y="138" rx="5" height="22" width="333.83213075531853" fill="hsl(120, 100%, 80%)" stroke="hsl(120, 100%, 55%)" />
<g stroke="hsl(120, 100%, 40%)"><line x1="321.1220479544466" x2="346.54221355619046" y1="149" y2="149" />
<line x1="321.1220479544466" x2="321.1220479544466" y1="143" y2="155" />
<line x1="346.54221355619046" x2="346.54221355619046" y1="143" y2="155" />
</g>
</g>
<g fill="hsl(180, 100%, 40%)">
<text y="187">catch.1000000.fused.deep</text>
<text y="187" x="888.096226988884" text-anchor="end">1.964 s</text>
</g>
<g>
<title>1.964 s ± 115 ms</title>
<rect y="193" rx="5" height="22" width="888.096226988884" fill="hsl(180, 100%, 80%)" stroke="hsl(180, 100%, 55%)" />
<g stroke="hsl(180, 100%, 40%)"><line x1="836.1924539777681" x2="940.0" y1="204" y2="204" />
<line x1="836.1924539777681" x2="836.1924539777681" y1="198" y2="210" />
<line x1="940.0" x2="940.0" y1="198" y2="210" />
</g>
</g>
<g fill="hsl(240, 100%, 40%)">
<text y="242">catch.1000000.sem.shallow</text>
<text y="242" x="361.69241268777847" text-anchor="end">800  ms</text>
</g>
<g>
<title>800  ms ±  12 ms</title>
<rect y="248" rx="5" height="22" width="361.69241268777847" fill="hsl(240, 100%, 80%)" stroke="hsl(240, 100%, 55%)" />
<g stroke="hsl(240, 100%, 40%)"><line x1="356.1177190635916" x2="367.26710631196534" y1="259" y2="259" />
<line x1="356.1177190635916" x2="356.1177190635916" y1="253" y2="265" />
<line x1="367.26710631196534" x2="367.26710631196534" y1="253" y2="265" />
</g>
</g>
<g fill="hsl(300, 100%, 40%)">
<text y="297">catch.1000000.sem.deep</text>
<text y="297" x="616.8822239405936" text-anchor="end">1.364 s</text>
</g>
<g>
<title>1.364 s ±  67 ms</title>
<rect y="303" rx="5" height="22" width="616.8822239405936" fill="hsl(300, 100%, 80%)" stroke="hsl(300, 100%, 55%)" />
<g stroke="hsl(300, 100%, 40%)"><line x1="586.4345503655044" x2="647.3298975156828" y1="314" y2="314" />
<line x1="586.4345503655044" x2="586.4345503655044" y1="308" y2="320" />
<line x1="647.3298975156828" x2="647.3298975156828" y1="308" y2="320" />
</g>
</g>
</g>
</svg>
