<svg xmlns="http://www.w3.org/2000/svg" height="337" width="960.0" font-size="16" font-family="sans-serif" stroke-width="2">
<g transform="translate(10.0 0)">
<text fill="hsl(0, 100%, 40%)" y="22">catch.1000000.sp.shallow 544 ms</text>
<g>
<title>544 ms ±  51 ms</title>
<rect y="28" rx="5" height="22" width="226.1888420961564" fill="hsl(0, 100%, 80%)" stroke="hsl(0, 100%, 55%)" />
<g stroke="hsl(0, 100%, 40%)"><line x1="205.175091741767" x2="247.2025924505458" y1="39" y2="39" />
<line x1="205.175091741767" x2="205.175091741767" y1="33" y2="45" />
<line x1="247.2025924505458" x2="247.2025924505458" y1="33" y2="45" />
</g>
</g>
<g fill="hsl(60, 100%, 40%)">
<text y="77">catch.1000000.sp.deep</text>
<text y="77" x="312.29791421775434" text-anchor="end">751 ms</text>
</g>
<g>
<title>751 ms ±  29 ms</title>
<rect y="83" rx="5" height="22" width="312.29791421775434" fill="hsl(60, 100%, 80%)" stroke="hsl(60, 100%, 55%)" />
<g stroke="hsl(60, 100%, 40%)"><line x1="300.19806510579997" x2="324.3977633297087" y1="94" y2="94" />
<line x1="300.19806510579997" x2="300.19806510579997" y1="88" y2="100" />
<line x1="324.3977633297087" x2="324.3977633297087" y1="88" y2="100" />
</g>
</g>
<g fill="hsl(120, 100%, 40%)">
<text y="132">catch.1000000.fused.shallow</text>
<text y="132" x="353.14532779161664" text-anchor="end">849 ms</text>
</g>
<g>
<title>849 ms ±  82 ms</title>
<rect y="138" rx="5" height="22" width="353.14532779161664" fill="hsl(120, 100%, 80%)" stroke="hsl(120, 100%, 55%)" />
<g stroke="hsl(120, 100%, 40%)"><line x1="319.20838177680514" x2="387.08227380642813" y1="149" y2="149" />
<line x1="319.20838177680514" x2="319.20838177680514" y1="143" y2="155" />
<line x1="387.08227380642813" x2="387.08227380642813" y1="143" y2="155" />
</g>
</g>
<g fill="hsl(180, 100%, 40%)">
<text y="187">catch.1000000.fused.deep</text>
<text y="187" x="896.2209172193069" text-anchor="end">2.15 s</text>
</g>
<g>
<title>2.15 s ± 105 ms</title>
<rect y="193" rx="5" height="22" width="896.2209172193069" fill="hsl(180, 100%, 80%)" stroke="hsl(180, 100%, 55%)" />
<g stroke="hsl(180, 100%, 40%)"><line x1="852.4418344386138" x2="940.0" y1="204" y2="204" />
<line x1="852.4418344386138" x2="852.4418344386138" y1="198" y2="210" />
<line x1="940.0" x2="940.0" y1="198" y2="210" />
</g>
</g>
<g fill="hsl(240, 100%, 40%)">
<text y="242">catch.1000000.sem.shallow</text>
<text y="242" x="330.6792364033273" text-anchor="end">795 ms</text>
</g>
<g>
<title>795 ms ±  23 ms</title>
<rect y="248" rx="5" height="22" width="330.6792364033273" fill="hsl(240, 100%, 80%)" stroke="hsl(240, 100%, 55%)" />
<g stroke="hsl(240, 100%, 40%)"><line x1="321.20683276340867" x2="340.15164004324595" y1="259" y2="259" />
<line x1="321.20683276340867" x2="321.20683276340867" y1="253" y2="265" />
<line x1="340.15164004324595" x2="340.15164004324595" y1="253" y2="265" />
</g>
</g>
<g fill="hsl(300, 100%, 40%)">
<text y="297">catch.1000000.sem.deep</text>
<text y="297" x="711.4969903398313" text-anchor="end">1.71 s</text>
</g>
<g>
<title>1.71 s ± 123 ms</title>
<rect y="303" rx="5" height="22" width="711.4969903398313" fill="hsl(300, 100%, 80%)" stroke="hsl(300, 100%, 55%)" />
<g stroke="hsl(300, 100%, 40%)"><line x1="660.5372661630702" x2="762.4567145165925" y1="314" y2="314" />
<line x1="660.5372661630702" x2="660.5372661630702" y1="308" y2="320" />
<line x1="762.4567145165925" x2="762.4567145165925" y1="308" y2="320" />
</g>
</g>
</g>
</svg>
