<svg xmlns="http://www.w3.org/2000/svg" height="667" width="960.0" font-size="16" font-family="sans-serif" stroke-width="2">
<g transform="translate(10.0 0)">
<text fill="hsl(0, 100%, 40%)" y="22">countdown.1000000.sp.shallow 17.6 ms</text>
<g>
<title>17.6 ms ± 691 μs</title>
<rect y="28" rx="5" height="22" width="13.477996605497683" fill="hsl(0, 100%, 80%)" stroke="hsl(0, 100%, 55%)" />
<g stroke="hsl(0, 100%, 40%)"><line x1="12.948080984196142" x2="14.007912226799224" y1="39" y2="39" />
<line x1="12.948080984196142" x2="12.948080984196142" y1="33" y2="45" />
<line x1="14.007912226799224" x2="14.007912226799224" y1="33" y2="45" />
</g>
</g>
<text fill="hsl(30, 100%, 40%)" y="77">countdown.1000000.sp.deep 17.7 ms</text>
<g>
<title>17.7 ms ± 738 μs</title>
<rect y="83" rx="5" height="22" width="13.558223708781938" fill="hsl(30, 100%, 80%)" stroke="hsl(30, 100%, 55%)" />
<g stroke="hsl(30, 100%, 40%)"><line x1="12.992340587008497" x2="14.124106830555379" y1="94" y2="94" />
<line x1="12.992340587008497" x2="12.992340587008497" y1="88" y2="100" />
<line x1="14.124106830555379" x2="14.124106830555379" y1="88" y2="100" />
</g>
</g>
<text fill="hsl(60, 100%, 40%)" y="132">countdown.1000000.ev.shallow 37.6 ms</text>
<g>
<title>37.6 ms ± 3.6 ms</title>
<rect y="138" rx="5" height="22" width="28.798914064499268" fill="hsl(60, 100%, 80%)" stroke="hsl(60, 100%, 55%)" />
<g stroke="hsl(60, 100%, 40%)"><line x1="26.02504329839569" x2="31.572784830602846" y1="149" y2="149" />
<line x1="26.02504329839569" x2="26.02504329839569" y1="143" y2="155" />
<line x1="31.572784830602846" x2="31.572784830602846" y1="143" y2="155" />
</g>
</g>
<text fill="hsl(90, 100%, 40%)" y="187">countdown.1000000.ev.deep 38.4 ms</text>
<g>
<title>38.4 ms ± 2.2 ms</title>
<rect y="193" rx="5" height="22" width="29.470655935712323" fill="hsl(90, 100%, 80%)" stroke="hsl(90, 100%, 55%)" />
<g stroke="hsl(90, 100%, 40%)"><line x1="27.795524990608605" x2="31.14578688081604" y1="204" y2="204" />
<line x1="27.795524990608605" x2="27.795524990608605" y1="198" y2="210" />
<line x1="31.14578688081604" x2="31.14578688081604" y1="198" y2="210" />
</g>
</g>
<text fill="hsl(120, 100%, 40%)" y="242">countdown.1000000.freer.shallow 43.6 ms</text>
<g>
<title>43.6 ms ± 2.3 ms</title>
<rect y="248" rx="5" height="22" width="33.4434824867189" fill="hsl(120, 100%, 80%)" stroke="hsl(120, 100%, 55%)" />
<g stroke="hsl(120, 100%, 40%)"><line x1="31.67904054434553" x2="35.20792442909227" y1="259" y2="259" />
<line x1="31.67904054434553" x2="31.67904054434553" y1="253" y2="265" />
<line x1="35.20792442909227" x2="35.20792442909227" y1="253" y2="265" />
</g>
</g>
<text fill="hsl(150, 100%, 40%)" y="297">countdown.1000000.freer.deep 155  ms</text>
<g>
<title>155  ms ± 3.0 ms</title>
<rect y="303" rx="5" height="22" width="119.00916890271141" fill="hsl(150, 100%, 80%)" stroke="hsl(150, 100%, 55%)" />
<g stroke="hsl(150, 100%, 40%)"><line x1="116.72583488555473" x2="121.29250291986808" y1="314" y2="314" />
<line x1="116.72583488555473" x2="116.72583488555473" y1="308" y2="320" />
<line x1="121.29250291986808" x2="121.29250291986808" y1="308" y2="320" />
</g>
</g>
<text fill="hsl(180, 100%, 40%)" y="352">countdown.1000000.mtl.shallow 52.3 ms</text>
<g>
<title>52.3 ms ± 2.1 ms</title>
<rect y="358" rx="5" height="22" width="40.113628980500195" fill="hsl(180, 100%, 80%)" stroke="hsl(180, 100%, 55%)" />
<g stroke="hsl(180, 100%, 40%)"><line x1="38.524538885711735" x2="41.702719075288655" y1="369" y2="369" />
<line x1="38.524538885711735" x2="38.524538885711735" y1="363" y2="375" />
<line x1="41.702719075288655" x2="41.702719075288655" y1="363" y2="375" />
</g>
</g>
<g fill="hsl(210, 100%, 40%)">
<text y="407">countdown.1000000.mtl.deep</text>
<text y="407" x="491.3672645055237" text-anchor="end">641  ms</text>
</g>
<g>
<title>641  ms ±  50 ms</title>
<rect y="413" rx="5" height="22" width="491.3672645055237" fill="hsl(210, 100%, 80%)" stroke="hsl(210, 100%, 55%)" />
<g stroke="hsl(210, 100%, 40%)"><line x1="452.9591403014448" x2="529.7753887096026" y1="424" y2="424" />
<line x1="452.9591403014448" x2="452.9591403014448" y1="418" y2="430" />
<line x1="529.7753887096026" x2="529.7753887096026" y1="418" y2="430" />
</g>
</g>
<text fill="hsl(240, 100%, 40%)" y="462">countdown.1000000.fused.shallow 101  ms</text>
<g>
<title>101  ms ± 8.0 ms</title>
<rect y="468" rx="5" height="22" width="77.67634086180132" fill="hsl(240, 100%, 80%)" stroke="hsl(240, 100%, 55%)" />
<g stroke="hsl(240, 100%, 40%)"><line x1="71.55263222672673" x2="83.80004949687591" y1="479" y2="479" />
<line x1="71.55263222672673" x2="71.55263222672673" y1="473" y2="485" />
<line x1="83.80004949687591" x2="83.80004949687591" y1="473" y2="485" />
</g>
</g>
<g fill="hsl(270, 100%, 40%)">
<text y="517">countdown.1000000.fused.deep</text>
<text y="517" x="932.0575553873256" text-anchor="end">1.216 s</text>
</g>
<g>
<title>1.216 s ±  10 ms</title>
<rect y="523" rx="5" height="22" width="932.0575553873256" fill="hsl(270, 100%, 80%)" stroke="hsl(270, 100%, 55%)" />
<g stroke="hsl(270, 100%, 40%)"><line x1="924.1151107746512" x2="940.0" y1="534" y2="534" />
<line x1="924.1151107746512" x2="924.1151107746512" y1="528" y2="540" />
<line x1="940.0" x2="940.0" y1="528" y2="540" />
</g>
</g>
<text fill="hsl(300, 100%, 40%)" y="572">countdown.1000000.sem.shallow 245  ms</text>
<g>
<title>245  ms ± 7.6 ms</title>
<rect y="578" rx="5" height="22" width="187.54530462881107" fill="hsl(300, 100%, 80%)" stroke="hsl(300, 100%, 55%)" />
<g stroke="hsl(300, 100%, 40%)"><line x1="181.72735574036736" x2="193.36325351725478" y1="589" y2="589" />
<line x1="181.72735574036736" x2="181.72735574036736" y1="583" y2="595" />
<line x1="193.36325351725478" x2="193.36325351725478" y1="583" y2="595" />
</g>
</g>
<text fill="hsl(330, 100%, 40%)" y="627">countdown.1000000.sem.deep 346  ms</text>
<g>
<title>346  ms ±  13 ms</title>
<rect y="633" rx="5" height="22" width="265.36712962483057" fill="hsl(330, 100%, 80%)" stroke="hsl(330, 100%, 55%)" />
<g stroke="hsl(330, 100%, 40%)"><line x1="255.67256644824204" x2="275.0616928014191" y1="644" y2="644" />
<line x1="255.67256644824204" x2="255.67256644824204" y1="638" y2="650" />
<line x1="275.0616928014191" x2="275.0616928014191" y1="638" y2="650" />
</g>
</g>
</g>
</svg>
