<svg xmlns="http://www.w3.org/2000/svg" height="667" width="960.0" font-size="16" font-family="sans-serif" stroke-width="2">
<g transform="translate(10.0 0)">
<text fill="hsl(0, 100%, 40%)" y="22">countdown.1000000.sp.shallow 17.8 ms</text>
<g>
<title>17.8 ms ± 1.2 ms</title>
<rect y="28" rx="5" height="22" width="13.481799611939818" fill="hsl(0, 100%, 80%)" stroke="hsl(0, 100%, 55%)" />
<g stroke="hsl(0, 100%, 40%)"><line x1="12.570067236586457" x2="14.39353198729318" y1="39" y2="39" />
<line x1="12.570067236586457" x2="12.570067236586457" y1="33" y2="45" />
<line x1="14.39353198729318" x2="14.39353198729318" y1="33" y2="45" />
</g>
</g>
<text fill="hsl(30, 100%, 40%)" y="77">countdown.1000000.sp.deep 18.0 ms</text>
<g>
<title>18.0 ms ± 759 μs</title>
<rect y="83" rx="5" height="22" width="13.626424129638465" fill="hsl(30, 100%, 80%)" stroke="hsl(30, 100%, 55%)" />
<g stroke="hsl(30, 100%, 40%)"><line x1="13.052846560540456" x2="14.200001698736475" y1="94" y2="94" />
<line x1="13.052846560540456" x2="13.052846560540456" y1="88" y2="100" />
<line x1="14.200001698736475" x2="14.200001698736475" y1="88" y2="100" />
</g>
</g>
<text fill="hsl(60, 100%, 40%)" y="132">countdown.1000000.ev.shallow 37.1 ms</text>
<g>
<title>37.1 ms ± 3.4 ms</title>
<rect y="138" rx="5" height="22" width="28.06007811500125" fill="hsl(60, 100%, 80%)" stroke="hsl(60, 100%, 55%)" />
<g stroke="hsl(60, 100%, 40%)"><line x1="25.476760477565648" x2="30.643395752436852" y1="149" y2="149" />
<line x1="25.476760477565648" x2="25.476760477565648" y1="143" y2="155" />
<line x1="30.643395752436852" x2="30.643395752436852" y1="143" y2="155" />
</g>
</g>
<text fill="hsl(90, 100%, 40%)" y="187">countdown.1000000.ev.deep 40.0 ms</text>
<g>
<title>40.0 ms ± 2.8 ms</title>
<rect y="193" rx="5" height="22" width="30.252842202124548" fill="hsl(90, 100%, 80%)" stroke="hsl(90, 100%, 55%)" />
<g stroke="hsl(90, 100%, 40%)"><line x1="28.121100678386373" x2="32.384583725862726" y1="204" y2="204" />
<line x1="28.121100678386373" x2="28.121100678386373" y1="198" y2="210" />
<line x1="32.384583725862726" x2="32.384583725862726" y1="198" y2="210" />
</g>
</g>
<text fill="hsl(120, 100%, 40%)" y="242">countdown.1000000.freer.shallow 40.6 ms</text>
<g>
<title>40.6 ms ± 1.5 ms</title>
<rect y="248" rx="5" height="22" width="30.671158264495983" fill="hsl(120, 100%, 80%)" stroke="hsl(120, 100%, 55%)" />
<g stroke="hsl(120, 100%, 40%)"><line x1="29.536232128935147" x2="31.806084400056818" y1="259" y2="259" />
<line x1="29.536232128935147" x2="29.536232128935147" y1="253" y2="265" />
<line x1="31.806084400056818" x2="31.806084400056818" y1="253" y2="265" />
</g>
</g>
<text fill="hsl(150, 100%, 40%)" y="297">countdown.1000000.freer.deep 156  ms</text>
<g>
<title>156  ms ± 5.3 ms</title>
<rect y="303" rx="5" height="22" width="118.04238128106047" fill="hsl(150, 100%, 80%)" stroke="hsl(150, 100%, 55%)" />
<g stroke="hsl(150, 100%, 40%)"><line x1="114.03695524949441" x2="122.04780731262653" y1="314" y2="314" />
<line x1="114.03695524949441" x2="114.03695524949441" y1="308" y2="320" />
<line x1="122.04780731262653" x2="122.04780731262653" y1="308" y2="320" />
</g>
</g>
<text fill="hsl(180, 100%, 40%)" y="352">countdown.1000000.mtl.shallow 51.9 ms</text>
<g>
<title>51.9 ms ± 3.3 ms</title>
<rect y="358" rx="5" height="22" width="39.234227409076986" fill="hsl(180, 100%, 80%)" stroke="hsl(180, 100%, 55%)" />
<g stroke="hsl(180, 100%, 40%)"><line x1="36.771215788405804" x2="41.69723902974817" y1="369" y2="369" />
<line x1="36.771215788405804" x2="36.771215788405804" y1="363" y2="375" />
<line x1="41.69723902974817" x2="41.69723902974817" y1="363" y2="375" />
</g>
</g>
<g fill="hsl(210, 100%, 40%)">
<text y="407">countdown.1000000.mtl.deep</text>
<text y="407" x="504.58835960282704" text-anchor="end">667  ms</text>
</g>
<g>
<title>667  ms ±  58 ms</title>
<rect y="413" rx="5" height="22" width="504.58835960282704" fill="hsl(210, 100%, 80%)" stroke="hsl(210, 100%, 55%)" />
<g stroke="hsl(210, 100%, 40%)"><line x1="460.53453805654016" x2="548.642181149114" y1="424" y2="424" />
<line x1="460.53453805654016" x2="460.53453805654016" y1="418" y2="430" />
<line x1="548.642181149114" x2="548.642181149114" y1="418" y2="430" />
</g>
</g>
<text fill="hsl(240, 100%, 40%)" y="462">countdown.1000000.fused.shallow 106  ms</text>
<g>
<title>106  ms ± 6.9 ms</title>
<rect y="468" rx="5" height="22" width="80.33924771791595" fill="hsl(240, 100%, 80%)" stroke="hsl(240, 100%, 55%)" />
<g stroke="hsl(240, 100%, 40%)"><line x1="75.12386142566635" x2="85.55463401016556" y1="479" y2="479" />
<line x1="75.12386142566635" x2="75.12386142566635" y1="473" y2="485" />
<line x1="85.55463401016556" x2="85.55463401016556" y1="473" y2="485" />
</g>
</g>
<g fill="hsl(270, 100%, 40%)">
<text y="517">countdown.1000000.fused.deep</text>
<text y="517" x="931.2839315005407" text-anchor="end">1.232 s</text>
</g>
<g>
<title>1.232 s ±  12 ms</title>
<rect y="523" rx="5" height="22" width="931.2839315005407" fill="hsl(270, 100%, 80%)" stroke="hsl(270, 100%, 55%)" />
<g stroke="hsl(270, 100%, 40%)"><line x1="922.5678630010814" x2="940.0" y1="534" y2="534" />
<line x1="922.5678630010814" x2="922.5678630010814" y1="528" y2="540" />
<line x1="940.0" x2="940.0" y1="528" y2="540" />
</g>
</g>
<text fill="hsl(300, 100%, 40%)" y="572">countdown.1000000.sem.shallow 249  ms</text>
<g>
<title>249  ms ± 9.5 ms</title>
<rect y="578" rx="5" height="22" width="188.52876786576576" fill="hsl(300, 100%, 80%)" stroke="hsl(300, 100%, 55%)" />
<g stroke="hsl(300, 100%, 40%)"><line x1="181.32966951146014" x2="195.72786622007138" y1="589" y2="589" />
<line x1="181.32966951146014" x2="181.32966951146014" y1="583" y2="595" />
<line x1="195.72786622007138" x2="195.72786622007138" y1="583" y2="595" />
</g>
</g>
<text fill="hsl(330, 100%, 40%)" y="627">countdown.1000000.sem.deep 348  ms</text>
<g>
<title>348  ms ±  11 ms</title>
<rect y="633" rx="5" height="22" width="263.04747753224467" fill="hsl(330, 100%, 80%)" stroke="hsl(330, 100%, 55%)" />
<g stroke="hsl(330, 100%, 40%)"><line x1="254.70239896168" x2="271.39255610280935" y1="644" y2="644" />
<line x1="254.70239896168" x2="254.70239896168" y1="638" y2="650" />
<line x1="271.39255610280935" x2="271.39255610280935" y1="638" y2="650" />
</g>
</g>
</g>
</svg>
