<svg xmlns="http://www.w3.org/2000/svg" height="667" width="960.0" font-size="16" font-family="sans-serif" stroke-width="2">
<g transform="translate(10.0 0)">
<text fill="hsl(0, 100%, 40%)" y="22">countdown.1000000.sp.shallow  22 ms</text>
<g>
<title> 22 ms ± 1.9 ms</title>
<rect y="28" rx="5" height="22" width="15.308896249685127" fill="hsl(0, 100%, 80%)" stroke="hsl(0, 100%, 55%)" />
<g stroke="hsl(0, 100%, 40%)"><line x1="13.938171987973517" x2="16.679620511396738" y1="39" y2="39" />
<line x1="13.938171987973517" x2="13.938171987973517" y1="33" y2="45" />
<line x1="16.679620511396738" x2="16.679620511396738" y1="33" y2="45" />
</g>
</g>
<text fill="hsl(30, 100%, 40%)" y="77">countdown.1000000.sp.deep  22 ms</text>
<g>
<title> 22 ms ± 1.4 ms</title>
<rect y="83" rx="5" height="22" width="15.55557257837753" fill="hsl(30, 100%, 80%)" stroke="hsl(30, 100%, 55%)" />
<g stroke="hsl(30, 100%, 40%)"><line x1="14.588614616012489" x2="16.522530540742572" y1="94" y2="94" />
<line x1="14.588614616012489" x2="14.588614616012489" y1="88" y2="100" />
<line x1="16.522530540742572" x2="16.522530540742572" y1="88" y2="100" />
</g>
</g>
<text fill="hsl(60, 100%, 40%)" y="132">countdown.1000000.ev.shallow  41 ms</text>
<g>
<title> 41 ms ± 3.8 ms</title>
<rect y="138" rx="5" height="22" width="29.10138172678304" fill="hsl(60, 100%, 80%)" stroke="hsl(60, 100%, 55%)" />
<g stroke="hsl(60, 100%, 40%)"><line x1="26.408186520764474" x2="31.794576932801604" y1="149" y2="149" />
<line x1="26.408186520764474" x2="26.408186520764474" y1="143" y2="155" />
<line x1="31.794576932801604" x2="31.794576932801604" y1="143" y2="155" />
</g>
</g>
<text fill="hsl(90, 100%, 40%)" y="187">countdown.1000000.ev.deep  46 ms</text>
<g>
<title> 46 ms ± 2.7 ms</title>
<rect y="193" rx="5" height="22" width="32.63673929236224" fill="hsl(90, 100%, 80%)" stroke="hsl(90, 100%, 55%)" />
<g stroke="hsl(90, 100%, 40%)"><line x1="30.694171360223308" x2="34.57930722450118" y1="204" y2="204" />
<line x1="30.694171360223308" x2="30.694171360223308" y1="198" y2="210" />
<line x1="34.57930722450118" x2="34.57930722450118" y1="198" y2="210" />
</g>
</g>
<text fill="hsl(120, 100%, 40%)" y="242">countdown.1000000.freer.shallow  52 ms</text>
<g>
<title> 52 ms ± 1.6 ms</title>
<rect y="248" rx="5" height="22" width="36.82595000400919" fill="hsl(120, 100%, 80%)" stroke="hsl(120, 100%, 55%)" />
<g stroke="hsl(120, 100%, 40%)"><line x1="35.688060099946554" x2="37.96383990807182" y1="259" y2="259" />
<line x1="35.688060099946554" x2="35.688060099946554" y1="253" y2="265" />
<line x1="37.96383990807182" x2="37.96383990807182" y1="253" y2="265" />
</g>
</g>
<text fill="hsl(150, 100%, 40%)" y="297">countdown.1000000.freer.deep 171 ms</text>
<g>
<title>171 ms ± 2.2 ms</title>
<rect y="303" rx="5" height="22" width="121.17414822779014" fill="hsl(150, 100%, 80%)" stroke="hsl(150, 100%, 55%)" />
<g stroke="hsl(150, 100%, 40%)"><line x1="119.60997939825899" x2="122.7383170573213" y1="314" y2="314" />
<line x1="119.60997939825899" x2="119.60997939825899" y1="308" y2="320" />
<line x1="122.7383170573213" x2="122.7383170573213" y1="308" y2="320" />
</g>
</g>
<text fill="hsl(180, 100%, 40%)" y="352">countdown.1000000.mtl.shallow  59 ms</text>
<g>
<title> 59 ms ± 3.9 ms</title>
<rect y="358" rx="5" height="22" width="41.81917568123108" fill="hsl(180, 100%, 80%)" stroke="hsl(180, 100%, 55%)" />
<g stroke="hsl(180, 100%, 40%)"><line x1="39.061186012921496" x2="44.577165349540664" y1="369" y2="369" />
<line x1="39.061186012921496" x2="39.061186012921496" y1="363" y2="375" />
<line x1="44.577165349540664" x2="44.577165349540664" y1="363" y2="375" />
</g>
</g>
<g fill="hsl(210, 100%, 40%)">
<text y="407">countdown.1000000.mtl.deep</text>
<text y="407" x="493.411396337012" text-anchor="end">695 ms</text>
</g>
<g>
<title>695 ms ± 7.6 ms</title>
<rect y="413" rx="5" height="22" width="493.411396337012" fill="hsl(210, 100%, 80%)" stroke="hsl(210, 100%, 55%)" />
<g stroke="hsl(210, 100%, 40%)"><line x1="487.9903839177541" x2="498.83240875626984" y1="424" y2="424" />
<line x1="487.9903839177541" x2="487.9903839177541" y1="418" y2="430" />
<line x1="498.83240875626984" x2="498.83240875626984" y1="418" y2="430" />
</g>
</g>
<text fill="hsl(240, 100%, 40%)" y="462">countdown.1000000.fused.shallow 131 ms</text>
<g>
<title>131 ms ±  11 ms</title>
<rect y="468" rx="5" height="22" width="92.78902897597244" fill="hsl(240, 100%, 80%)" stroke="hsl(240, 100%, 55%)" />
<g stroke="hsl(240, 100%, 40%)"><line x1="85.19468691230435" x2="100.38337103964054" y1="479" y2="479" />
<line x1="85.19468691230435" x2="85.19468691230435" y1="473" y2="485" />
<line x1="100.38337103964054" x2="100.38337103964054" y1="473" y2="485" />
</g>
</g>
<g fill="hsl(270, 100%, 40%)">
<text y="517">countdown.1000000.fused.deep</text>
<text y="517" x="928.1331825814858" text-anchor="end">1.31 s</text>
</g>
<g>
<title>1.31 s ±  17 ms</title>
<rect y="523" rx="5" height="22" width="928.1331825814858" fill="hsl(270, 100%, 80%)" stroke="hsl(270, 100%, 55%)" />
<g stroke="hsl(270, 100%, 40%)"><line x1="916.2663651629716" x2="940.0" y1="534" y2="534" />
<line x1="916.2663651629716" x2="916.2663651629716" y1="528" y2="540" />
<line x1="940.0" x2="940.0" y1="528" y2="540" />
</g>
</g>
<text fill="hsl(300, 100%, 40%)" y="572">countdown.1000000.sem.shallow 298 ms</text>
<g>
<title>298 ms ±  16 ms</title>
<rect y="578" rx="5" height="22" width="211.59683642592802" fill="hsl(300, 100%, 80%)" stroke="hsl(300, 100%, 55%)" />
<g stroke="hsl(300, 100%, 40%)"><line x1="200.37522784290584" x2="222.8184450089502" y1="589" y2="589" />
<line x1="200.37522784290584" x2="200.37522784290584" y1="583" y2="595" />
<line x1="222.8184450089502" x2="222.8184450089502" y1="583" y2="595" />
</g>
</g>
<g fill="hsl(330, 100%, 40%)">
<text y="627">countdown.1000000.sem.deep</text>
<text y="627" x="292.52142362463434" text-anchor="end">412 ms</text>
</g>
<g>
<title>412 ms ±  14 ms</title>
<rect y="633" rx="5" height="22" width="292.52142362463434" fill="hsl(330, 100%, 80%)" stroke="hsl(330, 100%, 55%)" />
<g stroke="hsl(330, 100%, 40%)"><line x1="282.5011140476014" x2="302.5417332016673" y1="644" y2="644" />
<line x1="282.5011140476014" x2="282.5011140476014" y1="638" y2="650" />
<line x1="302.5417332016673" x2="302.5417332016673" y1="638" y2="650" />
</g>
</g>
</g>
</svg>
