<svg xmlns="http://www.w3.org/2000/svg" height="337" width="960.0" font-size="16" font-family="sans-serif" stroke-width="2">
<g transform="translate(10.0 0)">
<text fill="hsl(0, 100%, 40%)" y="22">local.1000000.sp.shallow 271 ms</text>
<g>
<title>271 ms ± 5.5 ms</title>
<rect y="28" rx="5" height="22" width="157.46272329640647" fill="hsl(0, 100%, 80%)" stroke="hsl(0, 100%, 55%)" />
<g stroke="hsl(0, 100%, 40%)"><line x1="154.26684589477853" x2="160.6586006980344" y1="39" y2="39" />
<line x1="154.26684589477853" x2="154.26684589477853" y1="33" y2="45" />
<line x1="160.6586006980344" x2="160.6586006980344" y1="33" y2="45" />
</g>
</g>
<text fill="hsl(60, 100%, 40%)" y="77">local.1000000.sp.deep 267 ms</text>
<g>
<title>267 ms ± 2.3 ms</title>
<rect y="83" rx="5" height="22" width="154.93316811787452" fill="hsl(60, 100%, 80%)" stroke="hsl(60, 100%, 55%)" />
<g stroke="hsl(60, 100%, 40%)"><line x1="153.613077194543" x2="156.25325904120604" y1="94" y2="94" />
<line x1="153.613077194543" x2="153.613077194543" y1="88" y2="100" />
<line x1="156.25325904120604" x2="156.25325904120604" y1="88" y2="100" />
</g>
</g>
<text fill="hsl(120, 100%, 40%)" y="132">local.1000000.fused.shallow 281 ms</text>
<g>
<title>281 ms ± 3.5 ms</title>
<rect y="138" rx="5" height="22" width="163.43965454103505" fill="hsl(120, 100%, 80%)" stroke="hsl(120, 100%, 55%)" />
<g stroke="hsl(120, 100%, 40%)"><line x1="161.4122270252967" x2="165.46708205677342" y1="149" y2="149" />
<line x1="161.4122270252967" x2="161.4122270252967" y1="143" y2="155" />
<line x1="165.46708205677342" x2="165.46708205677342" y1="143" y2="155" />
</g>
</g>
<g fill="hsl(180, 100%, 40%)">
<text y="187">local.1000000.fused.deep</text>
<text y="187" x="367.64850831572244" text-anchor="end">632 ms</text>
</g>
<g>
<title>632 ms ±  21 ms</title>
<rect y="193" rx="5" height="22" width="367.64850831572244" fill="hsl(180, 100%, 80%)" stroke="hsl(180, 100%, 55%)" />
<g stroke="hsl(180, 100%, 40%)"><line x1="355.71652764059627" x2="379.5804889908486" y1="204" y2="204" />
<line x1="355.71652764059627" x2="355.71652764059627" y1="198" y2="210" />
<line x1="379.5804889908486" x2="379.5804889908486" y1="198" y2="210" />
</g>
</g>
<g fill="hsl(240, 100%, 40%)">
<text y="242">local.1000000.sem.shallow</text>
<text y="242" x="499.10139975097997" text-anchor="end">859 ms</text>
</g>
<g>
<title>859 ms ±  35 ms</title>
<rect y="248" rx="5" height="22" width="499.10139975097997" fill="hsl(240, 100%, 80%)" stroke="hsl(240, 100%, 55%)" />
<g stroke="hsl(240, 100%, 40%)"><line x1="478.4910310058244" x2="519.7117684961355" y1="259" y2="259" />
<line x1="478.4910310058244" x2="478.4910310058244" y1="253" y2="265" />
<line x1="519.7117684961355" x2="519.7117684961355" y1="253" y2="265" />
</g>
</g>
<g fill="hsl(300, 100%, 40%)">
<text y="297">local.1000000.sem.deep</text>
<text y="297" x="876.8924075778419" text-anchor="end">1.51 s</text>
</g>
<g>
<title>1.51 s ± 109 ms</title>
<rect y="303" rx="5" height="22" width="876.8924075778419" fill="hsl(300, 100%, 80%)" stroke="hsl(300, 100%, 55%)" />
<g stroke="hsl(300, 100%, 40%)"><line x1="813.7848151556839" x2="940.0" y1="314" y2="314" />
<line x1="813.7848151556839" x2="813.7848151556839" y1="308" y2="320" />
<line x1="940.0" x2="940.0" y1="308" y2="320" />
</g>
</g>
</g>
</svg>
