<svg xmlns="http://www.w3.org/2000/svg" height="337" width="960.0" font-size="16" font-family="sans-serif" stroke-width="2">
<g transform="translate(10.0 0)">
<text fill="hsl(0, 100%, 40%)" y="22">local.1000000.sp.shallow 61.7 ms</text>
<g>
<title>61.7 ms ± 3.0 ms</title>
<rect y="28" rx="5" height="22" width="53.31724628250265" fill="hsl(0, 100%, 80%)" stroke="hsl(0, 100%, 55%)" />
<g stroke="hsl(0, 100%, 40%)"><line x1="50.73701424164948" x2="55.89747832335582" y1="39" y2="39" />
<line x1="50.73701424164948" x2="50.73701424164948" y1="33" y2="45" />
<line x1="55.89747832335582" x2="55.89747832335582" y1="33" y2="45" />
</g>
</g>
<text fill="hsl(60, 100%, 40%)" y="77">local.1000000.sp.deep 65.0 ms</text>
<g>
<title>65.0 ms ± 3.3 ms</title>
<rect y="83" rx="5" height="22" width="56.25130917350226" fill="hsl(60, 100%, 80%)" stroke="hsl(60, 100%, 55%)" />
<g stroke="hsl(60, 100%, 40%)"><line x1="53.43495439606156" x2="59.06766395094295" y1="94" y2="94" />
<line x1="53.43495439606156" x2="53.43495439606156" y1="88" y2="100" />
<line x1="59.06766395094295" x2="59.06766395094295" y1="88" y2="100" />
</g>
</g>
<text fill="hsl(120, 100%, 40%)" y="132">local.1000000.fused.shallow 251  ms</text>
<g>
<title>251  ms ± 2.5 ms</title>
<rect y="138" rx="5" height="22" width="217.21139446685046" fill="hsl(120, 100%, 80%)" stroke="hsl(120, 100%, 55%)" />
<g stroke="hsl(120, 100%, 40%)"><line x1="215.07072338377952" x2="219.3520655499214" y1="149" y2="149" />
<line x1="215.07072338377952" x2="215.07072338377952" y1="143" y2="155" />
<line x1="219.3520655499214" x2="219.3520655499214" y1="143" y2="155" />
</g>
</g>
<g fill="hsl(180, 100%, 40%)">
<text y="187">local.1000000.fused.deep</text>
<text y="187" x="484.6981422357935" text-anchor="end">560  ms</text>
</g>
<g>
<title>560  ms ±  21 ms</title>
<rect y="193" rx="5" height="22" width="484.6981422357935" fill="hsl(180, 100%, 80%)" stroke="hsl(180, 100%, 55%)" />
<g stroke="hsl(180, 100%, 40%)"><line x1="466.524999516662" x2="502.87128495492504" y1="204" y2="204" />
<line x1="466.524999516662" x2="466.524999516662" y1="198" y2="210" />
<line x1="502.87128495492504" x2="502.87128495492504" y1="198" y2="210" />
</g>
</g>
<g fill="hsl(240, 100%, 40%)">
<text y="242">local.1000000.sem.shallow</text>
<text y="242" x="595.3608609245125" text-anchor="end">688  ms</text>
</g>
<g>
<title>688  ms ±  26 ms</title>
<rect y="248" rx="5" height="22" width="595.3608609245125" fill="hsl(240, 100%, 80%)" stroke="hsl(240, 100%, 55%)" />
<g stroke="hsl(240, 100%, 40%)"><line x1="572.4933714425204" x2="618.2283504065047" y1="259" y2="259" />
<line x1="572.4933714425204" x2="572.4933714425204" y1="253" y2="265" />
<line x1="618.2283504065047" x2="618.2283504065047" y1="253" y2="265" />
</g>
</g>
<g fill="hsl(300, 100%, 40%)">
<text y="297">local.1000000.sem.deep</text>
<text y="297" x="901.9547042615714" text-anchor="end">1.043 s</text>
</g>
<g>
<title>1.043 s ±  44 ms</title>
<rect y="303" rx="5" height="22" width="901.9547042615714" fill="hsl(300, 100%, 80%)" stroke="hsl(300, 100%, 55%)" />
<g stroke="hsl(300, 100%, 40%)"><line x1="863.9094085231427" x2="940.0" y1="314" y2="314" />
<line x1="863.9094085231427" x2="863.9094085231427" y1="308" y2="320" />
<line x1="940.0" x2="940.0" y1="308" y2="320" />
</g>
</g>
</g>
</svg>
