<svg xmlns="http://www.w3.org/2000/svg" height="337" width="960.0" font-size="16" font-family="sans-serif" stroke-width="2">
<g transform="translate(10.0 0)">
<text fill="hsl(0, 100%, 40%)" y="22">local.1000000.sp.shallow 63.5 ms</text>
<g>
<title>63.5 ms ± 2.9 ms</title>
<rect y="28" rx="5" height="22" width="54.77202631727398" fill="hsl(0, 100%, 80%)" stroke="hsl(0, 100%, 55%)" />
<g stroke="hsl(0, 100%, 40%)"><line x1="52.23092465241935" x2="57.31312798212862" y1="39" y2="39" />
<line x1="52.23092465241935" x2="52.23092465241935" y1="33" y2="45" />
<line x1="57.31312798212862" x2="57.31312798212862" y1="33" y2="45" />
</g>
</g>
<text fill="hsl(60, 100%, 40%)" y="77">local.1000000.sp.deep 67.6 ms</text>
<g>
<title>67.6 ms ± 3.4 ms</title>
<rect y="83" rx="5" height="22" width="58.29426787582072" fill="hsl(60, 100%, 80%)" stroke="hsl(60, 100%, 55%)" />
<g stroke="hsl(60, 100%, 40%)"><line x1="55.382582035258665" x2="61.20595371638278" y1="94" y2="94" />
<line x1="55.382582035258665" x2="55.382582035258665" y1="88" y2="100" />
<line x1="61.20595371638278" x2="61.20595371638278" y1="88" y2="100" />
</g>
</g>
<text fill="hsl(120, 100%, 40%)" y="132">local.1000000.fused.shallow 251  ms</text>
<g>
<title>251  ms ± 2.7 ms</title>
<rect y="138" rx="5" height="22" width="216.07331026973648" fill="hsl(120, 100%, 80%)" stroke="hsl(120, 100%, 55%)" />
<g stroke="hsl(120, 100%, 40%)"><line x1="213.73022585800777" x2="218.4163946814652" y1="149" y2="149" />
<line x1="213.73022585800777" x2="213.73022585800777" y1="143" y2="155" />
<line x1="218.4163946814652" x2="218.4163946814652" y1="143" y2="155" />
</g>
</g>
<g fill="hsl(180, 100%, 40%)">
<text y="187">local.1000000.fused.deep</text>
<text y="187" x="486.28461662891885" text-anchor="end">564  ms</text>
</g>
<g>
<title>564  ms ±  17 ms</title>
<rect y="193" rx="5" height="22" width="486.28461662891885" fill="hsl(180, 100%, 80%)" stroke="hsl(180, 100%, 55%)" />
<g stroke="hsl(180, 100%, 40%)"><line x1="471.8000556310916" x2="500.7691776267461" y1="204" y2="204" />
<line x1="471.8000556310916" x2="471.8000556310916" y1="198" y2="210" />
<line x1="500.7691776267461" x2="500.7691776267461" y1="198" y2="210" />
</g>
</g>
<g fill="hsl(240, 100%, 40%)">
<text y="242">local.1000000.sem.shallow</text>
<text y="242" x="629.3092126025502" text-anchor="end">730  ms</text>
</g>
<g>
<title>730  ms ±  44 ms</title>
<rect y="248" rx="5" height="22" width="629.3092126025502" fill="hsl(240, 100%, 80%)" stroke="hsl(240, 100%, 55%)" />
<g stroke="hsl(240, 100%, 40%)"><line x1="591.3500356116944" x2="667.2683895934061" y1="259" y2="259" />
<line x1="591.3500356116944" x2="591.3500356116944" y1="253" y2="265" />
<line x1="667.2683895934061" x2="667.2683895934061" y1="253" y2="265" />
</g>
</g>
<g fill="hsl(300, 100%, 40%)">
<text y="297">local.1000000.sem.deep</text>
<text y="297" x="910.1060577164292" text-anchor="end">1.056 s</text>
</g>
<g>
<title>1.056 s ±  35 ms</title>
<rect y="303" rx="5" height="22" width="910.1060577164292" fill="hsl(300, 100%, 80%)" stroke="hsl(300, 100%, 55%)" />
<g stroke="hsl(300, 100%, 40%)"><line x1="880.2121154328584" x2="940.0" y1="314" y2="314" />
<line x1="880.2121154328584" x2="880.2121154328584" y1="308" y2="320" />
<line x1="940.0" x2="940.0" y1="308" y2="320" />
</g>
</g>
</g>
</svg>
