<svg xmlns="http://www.w3.org/2000/svg" height="557" width="960.0" font-size="16" font-family="sans-serif" stroke-width="2">
<g transform="translate(10.0 0)">
<text fill="hsl(0, 100%, 40%)" y="22">pyth.128.sp.shallow 107  ms</text>
<g>
<title>107  ms ± 9.5 ms</title>
<rect y="28" rx="5" height="22" width="48.55100999652947" fill="hsl(0, 100%, 80%)" stroke="hsl(0, 100%, 55%)" />
<g stroke="hsl(0, 100%, 40%)"><line x1="44.243034471726006" x2="52.85898552133294" y1="39" y2="39" />
<line x1="44.243034471726006" x2="44.243034471726006" y1="33" y2="45" />
<line x1="52.85898552133294" x2="52.85898552133294" y1="33" y2="45" />
</g>
</g>
<text fill="hsl(36, 100%, 40%)" y="77">pyth.128.sp.deep 276  ms</text>
<g>
<title>276  ms ±  12 ms</title>
<rect y="83" rx="5" height="22" width="124.84427392583706" fill="hsl(36, 100%, 80%)" stroke="hsl(36, 100%, 55%)" />
<g stroke="hsl(36, 100%, 40%)"><line x1="119.52375296037992" x2="130.1647948912942" y1="94" y2="94" />
<line x1="119.52375296037992" x2="119.52375296037992" y1="88" y2="100" />
<line x1="130.1647948912942" x2="130.1647948912942" y1="88" y2="100" />
</g>
</g>
<text fill="hsl(72, 100%, 40%)" y="132">pyth.128.ev.shallow 119  ms</text>
<g>
<title>119  ms ± 8.1 ms</title>
<rect y="138" rx="5" height="22" width="53.57409746092294" fill="hsl(72, 100%, 80%)" stroke="hsl(72, 100%, 55%)" />
<g stroke="hsl(72, 100%, 40%)"><line x1="49.936352975423006" x2="57.21184194642288" y1="149" y2="149" />
<line x1="49.936352975423006" x2="49.936352975423006" y1="143" y2="155" />
<line x1="57.21184194642288" x2="57.21184194642288" y1="143" y2="155" />
</g>
</g>
<text fill="hsl(108, 100%, 40%)" y="187">pyth.128.ev.deep 287  ms</text>
<g>
<title>287  ms ± 4.5 ms</title>
<rect y="193" rx="5" height="22" width="129.79514376494686" fill="hsl(108, 100%, 80%)" stroke="hsl(108, 100%, 55%)" />
<g stroke="hsl(108, 100%, 40%)"><line x1="127.77341983767003" x2="131.8168676922237" y1="204" y2="204" />
<line x1="127.77341983767003" x2="127.77341983767003" y1="198" y2="210" />
<line x1="131.8168676922237" x2="131.8168676922237" y1="198" y2="210" />
</g>
</g>
<g fill="hsl(144, 100%, 40%)">
<text y="242">pyth.128.freer.shallow</text>
<text y="242" x="304.88800597762213" text-anchor="end">675  ms</text>
</g>
<g>
<title>675  ms ±  30 ms</title>
<rect y="248" rx="5" height="22" width="304.88800597762213" fill="hsl(144, 100%, 80%)" stroke="hsl(144, 100%, 55%)" />
<g stroke="hsl(144, 100%, 40%)"><line x1="291.27675008330044" x2="318.4992618719438" y1="259" y2="259" />
<line x1="291.27675008330044" x2="291.27675008330044" y1="253" y2="265" />
<line x1="318.4992618719438" x2="318.4992618719438" y1="253" y2="265" />
</g>
</g>
<g fill="hsl(180, 100%, 40%)">
<text y="297">pyth.128.freer.deep</text>
<text y="297" x="437.0756790892874" text-anchor="end">967  ms</text>
</g>
<g>
<title>967  ms ±  46 ms</title>
<rect y="303" rx="5" height="22" width="437.0756790892874" fill="hsl(180, 100%, 80%)" stroke="hsl(180, 100%, 55%)" />
<g stroke="hsl(180, 100%, 40%)"><line x1="416.25251718033263" x2="457.8988409982422" y1="314" y2="314" />
<line x1="416.25251718033263" x2="416.25251718033263" y1="308" y2="320" />
<line x1="457.8988409982422" x2="457.8988409982422" y1="308" y2="320" />
</g>
</g>
<text fill="hsl(216, 100%, 40%)" y="352">pyth.128.fused.shallow 76.8 ms</text>
<g>
<title>76.8 ms ± 2.3 ms</title>
<rect y="358" rx="5" height="22" width="34.70760106043247" fill="hsl(216, 100%, 80%)" stroke="hsl(216, 100%, 55%)" />
<g stroke="hsl(216, 100%, 40%)"><line x1="33.65040395524318" x2="35.764798165621755" y1="369" y2="369" />
<line x1="33.65040395524318" x2="33.65040395524318" y1="363" y2="375" />
<line x1="35.764798165621755" x2="35.764798165621755" y1="363" y2="375" />
</g>
</g>
<g fill="hsl(252, 100%, 40%)">
<text y="407">pyth.128.fused.deep</text>
<text y="407" x="384.7033260341274" text-anchor="end">851  ms</text>
</g>
<g>
<title>851  ms ±  17 ms</title>
<rect y="413" rx="5" height="22" width="384.7033260341274" fill="hsl(252, 100%, 80%)" stroke="hsl(252, 100%, 55%)" />
<g stroke="hsl(252, 100%, 40%)"><line x1="377.179008918166" x2="392.22764315008874" y1="424" y2="424" />
<line x1="377.179008918166" x2="377.179008918166" y1="418" y2="430" />
<line x1="392.22764315008874" x2="392.22764315008874" y1="418" y2="430" />
</g>
</g>
<g fill="hsl(288, 100%, 40%)">
<text y="462">pyth.128.sem.shallow</text>
<text y="462" x="935.2803695229298" text-anchor="end">2.070 s</text>
</g>
<g>
<title>2.070 s ± 6.6 ms</title>
<rect y="468" rx="5" height="22" width="935.2803695229298" fill="hsl(288, 100%, 80%)" stroke="hsl(288, 100%, 55%)" />
<g stroke="hsl(288, 100%, 40%)"><line x1="932.2987585927136" x2="938.2619804531461" y1="479" y2="479" />
<line x1="932.2987585927136" x2="932.2987585927136" y1="473" y2="485" />
<line x1="938.2619804531461" x2="938.2619804531461" y1="473" y2="485" />
</g>
</g>
<g fill="hsl(324, 100%, 40%)">
<text y="517">pyth.128.sem.deep</text>
<text y="517" x="935.5475549725174" text-anchor="end">2.070 s</text>
</g>
<g>
<title>2.070 s ± 9.9 ms</title>
<rect y="523" rx="5" height="22" width="935.5475549725174" fill="hsl(324, 100%, 80%)" stroke="hsl(324, 100%, 55%)" />
<g stroke="hsl(324, 100%, 40%)"><line x1="931.0951099450349" x2="940.0" y1="534" y2="534" />
<line x1="931.0951099450349" x2="931.0951099450349" y1="528" y2="540" />
<line x1="940.0" x2="940.0" y1="528" y2="540" />
</g>
</g>
</g>
</svg>
