<svg xmlns="http://www.w3.org/2000/svg" height="557" width="960.0" font-size="16" font-family="sans-serif" stroke-width="2">
<g transform="translate(10.0 0)">
<text fill="hsl(0, 100%, 40%)" y="22">pyth.128.sp.shallow 90.1 ms</text>
<g>
<title>90.1 ms ± 3.0 ms</title>
<rect y="28" rx="5" height="22" width="40.24029139053648" fill="hsl(0, 100%, 80%)" stroke="hsl(0, 100%, 55%)" />
<g stroke="hsl(0, 100%, 40%)"><line x1="38.90130714692034" x2="41.579275634152616" y1="39" y2="39" />
<line x1="38.90130714692034" x2="38.90130714692034" y1="33" y2="45" />
<line x1="41.579275634152616" x2="41.579275634152616" y1="33" y2="45" />
</g>
</g>
<text fill="hsl(36, 100%, 40%)" y="77">pyth.128.sp.deep 259  ms</text>
<g>
<title>259  ms ± 9.1 ms</title>
<rect y="83" rx="5" height="22" width="115.56013041561278" fill="hsl(36, 100%, 80%)" stroke="hsl(36, 100%, 55%)" />
<g stroke="hsl(36, 100%, 40%)"><line x1="111.51290643464343" x2="119.60735439658212" y1="94" y2="94" />
<line x1="111.51290643464343" x2="111.51290643464343" y1="88" y2="100" />
<line x1="119.60735439658212" x2="119.60735439658212" y1="88" y2="100" />
</g>
</g>
<text fill="hsl(72, 100%, 40%)" y="132">pyth.128.ev.shallow 119  ms</text>
<g>
<title>119  ms ± 4.5 ms</title>
<rect y="138" rx="5" height="22" width="53.18400880644951" fill="hsl(72, 100%, 80%)" stroke="hsl(72, 100%, 55%)" />
<g stroke="hsl(72, 100%, 40%)"><line x1="51.174627275360635" x2="55.19339033753839" y1="149" y2="149" />
<line x1="51.174627275360635" x2="51.174627275360635" y1="143" y2="155" />
<line x1="55.19339033753839" x2="55.19339033753839" y1="143" y2="155" />
</g>
</g>
<text fill="hsl(108, 100%, 40%)" y="187">pyth.128.ev.deep 275  ms</text>
<g>
<title>275  ms ±  13 ms</title>
<rect y="193" rx="5" height="22" width="122.80723039932616" fill="hsl(108, 100%, 80%)" stroke="hsl(108, 100%, 55%)" />
<g stroke="hsl(108, 100%, 40%)"><line x1="116.91852533144076" x2="128.69593546721154" y1="204" y2="204" />
<line x1="116.91852533144076" x2="116.91852533144076" y1="198" y2="210" />
<line x1="128.69593546721154" x2="128.69593546721154" y1="198" y2="210" />
</g>
</g>
<g fill="hsl(144, 100%, 40%)">
<text y="242">pyth.128.freer.shallow</text>
<text y="242" x="312.614167933555" text-anchor="end">700  ms</text>
</g>
<g>
<title>700  ms ± 9.9 ms</title>
<rect y="248" rx="5" height="22" width="312.614167933555" fill="hsl(144, 100%, 80%)" stroke="hsl(144, 100%, 55%)" />
<g stroke="hsl(144, 100%, 40%)"><line x1="308.17528913584084" x2="317.05304673126915" y1="259" y2="259" />
<line x1="308.17528913584084" x2="308.17528913584084" y1="253" y2="265" />
<line x1="317.05304673126915" x2="317.05304673126915" y1="253" y2="265" />
</g>
</g>
<g fill="hsl(180, 100%, 40%)">
<text y="297">pyth.128.freer.deep</text>
<text y="297" x="402.6777903448117" text-anchor="end">902  ms</text>
</g>
<g>
<title>902  ms ±  57 ms</title>
<rect y="303" rx="5" height="22" width="402.6777903448117" fill="hsl(180, 100%, 80%)" stroke="hsl(180, 100%, 55%)" />
<g stroke="hsl(180, 100%, 40%)"><line x1="377.41782223418926" x2="427.9377584554341" y1="314" y2="314" />
<line x1="377.41782223418926" x2="377.41782223418926" y1="308" y2="320" />
<line x1="427.9377584554341" x2="427.9377584554341" y1="308" y2="320" />
</g>
</g>
<text fill="hsl(216, 100%, 40%)" y="352">pyth.128.fused.shallow 73.5 ms</text>
<g>
<title>73.5 ms ± 2.7 ms</title>
<rect y="358" rx="5" height="22" width="32.79911765473185" fill="hsl(216, 100%, 80%)" stroke="hsl(216, 100%, 55%)" />
<g stroke="hsl(216, 100%, 40%)"><line x1="31.58039491640717" x2="34.01784039305654" y1="369" y2="369" />
<line x1="31.58039491640717" x2="31.58039491640717" y1="363" y2="375" />
<line x1="34.01784039305654" x2="34.01784039305654" y1="363" y2="375" />
</g>
</g>
<g fill="hsl(252, 100%, 40%)">
<text y="407">pyth.128.fused.deep</text>
<text y="407" x="371.62585248626397" text-anchor="end">832  ms</text>
</g>
<g>
<title>832  ms ± 6.9 ms</title>
<rect y="413" rx="5" height="22" width="371.62585248626397" fill="hsl(252, 100%, 80%)" stroke="hsl(252, 100%, 55%)" />
<g stroke="hsl(252, 100%, 40%)"><line x1="368.5506156734793" x2="374.70108929904865" y1="424" y2="424" />
<line x1="368.5506156734793" x2="368.5506156734793" y1="418" y2="430" />
<line x1="374.70108929904865" x2="374.70108929904865" y1="418" y2="430" />
</g>
</g>
<g fill="hsl(288, 100%, 40%)">
<text y="462">pyth.128.sem.shallow</text>
<text y="462" x="936.7542053517029" text-anchor="end">2.098 s</text>
</g>
<g>
<title>2.098 s ± 7.3 ms</title>
<rect y="468" rx="5" height="22" width="936.7542053517029" fill="hsl(288, 100%, 80%)" stroke="hsl(288, 100%, 55%)" />
<g stroke="hsl(288, 100%, 40%)"><line x1="933.5084107034058" x2="940.0" y1="479" y2="479" />
<line x1="933.5084107034058" x2="933.5084107034058" y1="473" y2="485" />
<line x1="940.0" x2="940.0" y1="473" y2="485" />
</g>
</g>
<g fill="hsl(324, 100%, 40%)">
<text y="517">pyth.128.sem.deep</text>
<text y="517" x="933.5138574938948" text-anchor="end">2.091 s</text>
</g>
<g>
<title>2.091 s ± 4.9 ms</title>
<rect y="523" rx="5" height="22" width="933.5138574938948" fill="hsl(324, 100%, 80%)" stroke="hsl(324, 100%, 55%)" />
<g stroke="hsl(324, 100%, 40%)"><line x1="931.3119924572891" x2="935.7157225305004" y1="534" y2="534" />
<line x1="931.3119924572891" x2="931.3119924572891" y1="528" y2="540" />
<line x1="935.7157225305004" x2="935.7157225305004" y1="528" y2="540" />
</g>
</g>
</g>
</svg>
