<svg xmlns="http://www.w3.org/2000/svg" height="557" width="960.0" font-size="16" font-family="sans-serif" stroke-width="2">
<g transform="translate(10.0 0)">
<text fill="hsl(0, 100%, 40%)" y="22">pyth.128.sp.shallow 109 ms</text>
<g>
<title>109 ms ± 3.2 ms</title>
<rect y="28" rx="5" height="22" width="39.676027380375864" fill="hsl(0, 100%, 80%)" stroke="hsl(0, 100%, 55%)" />
<g stroke="hsl(0, 100%, 40%)"><line x1="38.52437019161777" x2="40.82768456913396" y1="39" y2="39" />
<line x1="38.52437019161777" x2="38.52437019161777" y1="33" y2="45" />
<line x1="40.82768456913396" x2="40.82768456913396" y1="33" y2="45" />
</g>
</g>
<text fill="hsl(36, 100%, 40%)" y="77">pyth.128.sp.deep 289 ms</text>
<g>
<title>289 ms ± 3.6 ms</title>
<rect y="83" rx="5" height="22" width="105.06504548946037" fill="hsl(36, 100%, 80%)" stroke="hsl(36, 100%, 55%)" />
<g stroke="hsl(36, 100%, 40%)"><line x1="103.76087138216815" x2="106.3692195967526" y1="94" y2="94" />
<line x1="103.76087138216815" x2="103.76087138216815" y1="88" y2="100" />
<line x1="106.3692195967526" x2="106.3692195967526" y1="88" y2="100" />
</g>
</g>
<text fill="hsl(72, 100%, 40%)" y="132">pyth.128.ev.shallow  88 ms</text>
<g>
<title> 88 ms ± 3.2 ms</title>
<rect y="138" rx="5" height="22" width="32.189782329497405" fill="hsl(72, 100%, 80%)" stroke="hsl(72, 100%, 55%)" />
<g stroke="hsl(72, 100%, 40%)"><line x1="31.018292403127855" x2="33.36127225586695" y1="149" y2="149" />
<line x1="31.018292403127855" x2="31.018292403127855" y1="143" y2="155" />
<line x1="33.36127225586695" x2="33.36127225586695" y1="143" y2="155" />
</g>
</g>
<text fill="hsl(108, 100%, 40%)" y="187">pyth.128.ev.deep 258 ms</text>
<g>
<title>258 ms ± 3.2 ms</title>
<rect y="193" rx="5" height="22" width="93.936488173133" fill="hsl(108, 100%, 80%)" stroke="hsl(108, 100%, 55%)" />
<g stroke="hsl(108, 100%, 40%)"><line x1="92.76175688876184" x2="95.11121945750416" y1="204" y2="204" />
<line x1="92.76175688876184" x2="92.76175688876184" y1="198" y2="210" />
<line x1="95.11121945750416" x2="95.11121945750416" y1="198" y2="210" />
</g>
</g>
<g fill="hsl(144, 100%, 40%)">
<text y="242">pyth.128.freer.shallow</text>
<text y="242" x="267.0029890091221" text-anchor="end">734 ms</text>
</g>
<g>
<title>734 ms ±  31 ms</title>
<rect y="248" rx="5" height="22" width="267.0029890091221" fill="hsl(144, 100%, 80%)" stroke="hsl(144, 100%, 55%)" />
<g stroke="hsl(144, 100%, 40%)"><line x1="255.57821079666823" x2="278.4277672215759" y1="259" y2="259" />
<line x1="255.57821079666823" x2="255.57821079666823" y1="253" y2="265" />
<line x1="278.4277672215759" x2="278.4277672215759" y1="253" y2="265" />
</g>
</g>
<g fill="hsl(180, 100%, 40%)">
<text y="297">pyth.128.freer.deep</text>
<text y="297" x="361.3797036665454" text-anchor="end">993 ms</text>
</g>
<g>
<title>993 ms ±  99 ms</title>
<rect y="303" rx="5" height="22" width="361.3797036665454" fill="hsl(180, 100%, 80%)" stroke="hsl(180, 100%, 55%)" />
<g stroke="hsl(180, 100%, 40%)"><line x1="325.4893093961728" x2="397.27009793691803" y1="314" y2="314" />
<line x1="325.4893093961728" x2="325.4893093961728" y1="308" y2="320" />
<line x1="397.27009793691803" x2="397.27009793691803" y1="308" y2="320" />
</g>
</g>
<text fill="hsl(216, 100%, 40%)" y="352">pyth.128.fused.shallow  86 ms</text>
<g>
<title> 86 ms ± 2.8 ms</title>
<rect y="358" rx="5" height="22" width="31.124538628469924" fill="hsl(216, 100%, 80%)" stroke="hsl(216, 100%, 55%)" />
<g stroke="hsl(216, 100%, 40%)"><line x1="30.12265384348134" x2="32.12642341345851" y1="369" y2="369" />
<line x1="30.12265384348134" x2="30.12265384348134" y1="363" y2="375" />
<line x1="32.12642341345851" x2="32.12642341345851" y1="363" y2="375" />
</g>
</g>
<g fill="hsl(252, 100%, 40%)">
<text y="407">pyth.128.fused.deep</text>
<text y="407" x="330.7104798357755" text-anchor="end">909 ms</text>
</g>
<g>
<title>909 ms ± 8.1 ms</title>
<rect y="413" rx="5" height="22" width="330.7104798357755" fill="hsl(252, 100%, 80%)" stroke="hsl(252, 100%, 55%)" />
<g stroke="hsl(252, 100%, 40%)"><line x1="327.75216908823575" x2="333.6687905833153" y1="424" y2="424" />
<line x1="327.75216908823575" x2="327.75216908823575" y1="418" y2="430" />
<line x1="333.6687905833153" x2="333.6687905833153" y1="418" y2="430" />
</g>
</g>
<g fill="hsl(288, 100%, 40%)">
<text y="462">pyth.128.sem.shallow</text>
<text y="462" x="933.912251455864" text-anchor="end">2.57 s</text>
</g>
<g>
<title>2.57 s ± 4.3 ms</title>
<rect y="468" rx="5" height="22" width="933.912251455864" fill="hsl(288, 100%, 80%)" stroke="hsl(288, 100%, 55%)" />
<g stroke="hsl(288, 100%, 40%)"><line x1="932.3552813676738" x2="935.4692215440541" y1="479" y2="479" />
<line x1="932.3552813676738" x2="932.3552813676738" y1="473" y2="485" />
<line x1="935.4692215440541" x2="935.4692215440541" y1="473" y2="485" />
</g>
</g>
<g fill="hsl(324, 100%, 40%)">
<text y="517">pyth.128.sem.deep</text>
<text y="517" x="937.9084290661366" text-anchor="end">2.58 s</text>
</g>
<g>
<title>2.58 s ± 5.7 ms</title>
<rect y="523" rx="5" height="22" width="937.9084290661366" fill="hsl(324, 100%, 80%)" stroke="hsl(324, 100%, 55%)" />
<g stroke="hsl(324, 100%, 40%)"><line x1="935.8168581322732" x2="940.0" y1="534" y2="534" />
<line x1="935.8168581322732" x2="935.8168581322732" y1="528" y2="540" />
<line x1="940.0" x2="940.0" y1="528" y2="540" />
</g>
</g>
</g>
</svg>
